<?xml version="1.0" ?><svg id="Layer_1" style="enable-background:new 0 0 100 100;" version="1.1" viewBox="0 0 100 100" xml:space="preserve" xmlns="http://www.w3.org/2000/svg" xmlns:xlink="http://www.w3.org/1999/xlink"><g><path d="M30.4,76.1h35.5c11.3,0,20.5-9.2,20.5-20.5c0-6.2-2.8-11.8-7.1-15.5c0,0,0,0,0-0.1c-0.1-0.1-0.1-0.1-0.2-0.2   c-0.4-0.3-0.8-0.6-1.2-0.9c-0.1-0.1-0.3-0.2-0.4-0.3c-0.4-0.3-0.9-0.6-1.3-0.8c-0.1-0.1-0.2-0.1-0.4-0.2c-0.5-0.3-1-0.5-1.5-0.8   c-0.1,0-0.2-0.1-0.2-0.1c-0.6-0.2-1.2-0.5-1.8-0.7c0,0,0,0-0.1,0c-2-0.6-4.1-1-6.2-1c-0.4,0-0.8,0-1.3,0.1c-0.1,0-0.3,0-0.4,0   c-0.1,0-0.2,0-0.2,0c-3.7-7-10.9-11.3-18.8-11.3c-11.3,0-20.6,8.7-21.3,19.9c-6.2,2.6-10.3,8.8-10.3,15.5   C13.6,68.6,21.1,76.1,30.4,76.1z M25.6,44.4c0.4-10.6,9-18.8,19.6-18.8c7.1,0,13.5,3.7,17,9.9c-4.5,0.8-8.7,3.1-11.8,6.8   c-0.3,0.4-0.3,0.9,0.1,1.2c0.2,0.1,0.4,0.2,0.6,0.2c0.2,0,0.5-0.1,0.7-0.3c6.7-7.8,18.4-8.8,26.3-2.2c4.1,3.4,6.7,8.6,6.7,14.4   c0,10.4-8.4,18.8-18.8,18.8H30.4c-8.3,0-15.1-6.8-15.1-15.1c0-6.2,3.9-11.9,9.7-14.1C25.3,45.1,25.6,44.8,25.6,44.4z"/></g></svg>