<?xml version="1.0" ?><svg id="Layer_1" style="enable-background:new 0 0 100 100;" version="1.1" viewBox="0 0 100 100" xml:space="preserve" xmlns="http://www.w3.org/2000/svg" xmlns:xlink="http://www.w3.org/1999/xlink"><g><path d="M21.7,70.5h18.1c0.8,6.3,6.3,11.2,12.8,11.2h26.8c8.7,0,15.7-7.1,15.7-15.7c0-8.7-7.1-15.7-15.7-15.7c-0.4,0-0.9,0-1.3,0.1   c-0.1-0.3-0.3-0.5-0.5-0.8c-0.1-6-2.9-11.4-7.1-15.1c0,0,0,0,0-0.1c-0.1-0.1-0.1-0.1-0.2-0.2c-0.4-0.3-0.8-0.6-1.2-0.9   c-0.1-0.1-0.3-0.2-0.4-0.3c-0.4-0.3-0.9-0.6-1.3-0.8C67.2,32.1,67.1,32,67,32c-0.5-0.3-1-0.5-1.5-0.8c-0.1,0-0.2-0.1-0.2-0.1   c-0.6-0.2-1.2-0.5-1.8-0.7c0,0,0,0-0.1,0c-2-0.6-4.1-1-6.2-1c-0.4,0-0.8,0-1.3,0.1c-0.1,0-0.3,0-0.4,0c-0.1,0-0.2,0-0.2,0   c-3.7-7-10.9-11.3-18.8-11.3c-11.3,0-20.6,8.7-21.3,19.9C8.9,40.8,4.8,47,4.8,53.7C4.8,63,12.4,70.5,21.7,70.5z M16.8,38.8   c0.4-10.6,9-18.8,19.6-18.8c7.1,0,13.5,3.7,17,9.9c-4.5,0.8-8.7,3.1-11.8,6.8c-0.3,0.4-0.3,0.9,0.1,1.2c0.2,0.1,0.4,0.2,0.6,0.2   c0.2,0,0.5-0.1,0.7-0.3c6.7-7.8,18.4-8.8,26.3-2.2c3.4,2.8,5.8,6.8,6.5,11.4c-3-3.3-7.3-5.2-11.9-5.2c-8.6,0-15.7,6.6-16.3,15.2   c-4.7,2-7.8,6.7-7.8,11.9h-18c-8.3,0-15.1-6.8-15.1-15.1c0-6.2,3.9-11.9,9.7-14.1C16.6,39.5,16.8,39.2,16.8,38.8z M93.4,66   c0,7.7-6.3,14-14,14H52.6c-6.2,0-11.2-5-11.2-11.2c0-4.6,2.9-8.8,7.2-10.5c0.3-0.1,0.5-0.4,0.6-0.8c0.3-7.9,6.7-14,14.6-14   c5.6,0,10.6,3.1,13.1,8.1c0.2,0.3,0.5,0.5,0.9,0.5c0.6-0.1,1.2-0.1,1.7-0.1C87.2,52,93.4,58.3,93.4,66z"/></g></svg>