<?xml version="1.0" ?><svg id="Layer_1" style="enable-background:new 0 0 100 100;" version="1.1" viewBox="0 0 100 100" xml:space="preserve" xmlns="http://www.w3.org/2000/svg" xmlns:xlink="http://www.w3.org/1999/xlink"><g><path d="M63.6,25.1c-3.7-7-10.9-11.3-18.8-11.3c-11.3,0-20.6,8.7-21.3,19.9c-6.2,2.6-10.3,8.8-10.3,15.5c0,9.3,7.6,16.8,16.8,16.8   c0.5,0,0.9-0.4,0.9-0.9c0-0.1,0-0.2-0.1-0.3c-0.1-0.3-0.4-0.6-0.8-0.6c-8.3,0-15.1-6.8-15.1-15.1c0-6.2,3.9-11.9,9.7-14.1   c0.3-0.1,0.5-0.4,0.6-0.8c0.4-10.6,9-18.8,19.6-18.8c7.1,0,13.5,3.7,17,9.9c-4.5,0.8-8.7,3.1-11.8,6.8c-0.3,0.4-0.3,0.9,0.1,1.2   c0.2,0.1,0.4,0.2,0.6,0.2c0.2,0,0.5-0.1,0.7-0.3c6.7-7.8,18.4-8.8,26.3-2.2c4.1,3.4,6.8,8.6,6.8,14.4c0,0.1,0,0.2,0.1,0.3   c0.1,0.3,0.4,0.6,0.8,0.6c0.5,0,0.9-0.4,0.9-0.9c0-6.2-2.8-11.8-7.1-15.5c0,0,0,0,0-0.1c-0.1-0.1-0.1-0.1-0.2-0.2   c-0.4-0.3-0.8-0.6-1.2-0.9c-0.1-0.1-0.3-0.2-0.4-0.3c-0.4-0.3-0.9-0.6-1.3-0.8c-0.1-0.1-0.2-0.1-0.4-0.2c-0.5-0.3-1-0.5-1.5-0.8   c-0.1,0-0.1-0.1-0.2-0.1c-0.6-0.2-1.2-0.5-1.8-0.7c0,0,0,0-0.1,0c-2-0.6-4.1-1-6.2-1c-0.4,0-0.9,0-1.3,0.1c-0.1,0-0.2,0-0.3,0   C63.7,25.1,63.6,25.1,63.6,25.1z"/><path d="M70.5,43.9c0.3-0.3,0.3-0.9,0-1.2c-0.3-0.3-0.9-0.3-1.2,0L64,47.9v-8.4c0-0.5-0.4-0.9-0.9-0.9c-0.5,0-0.9,0.4-0.9,0.9v8.4   l-5.3-5.3c-0.3-0.3-0.9-0.3-1.2,0c-0.3,0.3-0.3,0.9,0,1.2l6.5,6.5v3.3v6.6l-4.9-4.9l-5.8-5.8c-0.3-0.3-0.9-0.3-1.2,0   s-0.3,0.9,0,1.2l5.2,5.2l5.5,5.5h-9.9l-2.9-2.9L44.5,55c-0.3-0.3-0.9-0.3-1.2,0c-0.3,0.3-0.3,0.9,0,1.2l3.1,3.1l2.2,2.2h-8.4   c0,0,0,0-0.1,0c-0.2,0-0.3,0.1-0.4,0.2c-0.2,0.2-0.4,0.4-0.4,0.7c0,0.5,0.4,0.9,0.9,0.9h8.4l-5.3,5.3c-0.3,0.3-0.3,0.9,0,1.2   c0.2,0.2,0.4,0.3,0.6,0.3c0.2,0,0.4-0.1,0.6-0.3l6.5-6.5H61L50.3,74c-0.3,0.3-0.3,0.9,0,1.2c0.2,0.2,0.4,0.3,0.6,0.3   c0.2,0,0.4-0.1,0.6-0.3l10.7-10.7v9.9L55.7,81c-0.3,0.3-0.3,0.9,0,1.2c0.3,0.3,0.9,0.3,1.2,0l5.3-5.3v8.4c0,0.5,0.4,0.9,0.9,0.9   c0.5,0,0.9-0.4,0.9-0.9v-8.4l5.3,5.3c0.2,0.2,0.4,0.3,0.6,0.3c0.2,0,0.4-0.1,0.6-0.3c0.3-0.3,0.3-0.9,0-1.2L64,74.5v-9.9l10.7,10.7   c0.2,0.2,0.4,0.3,0.6,0.3c0.2,0,0.4-0.1,0.6-0.3c0.3-0.3,0.3-0.9,0-1.2L65.2,63.3h9.9l6.5,6.5c0.2,0.2,0.4,0.3,0.6,0.3   c0.2,0,0.4-0.1,0.6-0.3c0.3-0.3,0.3-0.9,0-1.2l-5.3-5.3H86c0.5,0,0.9-0.4,0.9-0.9c0-0.5-0.4-0.9-0.9-0.9h-8.4l5.3-5.3   c0.3-0.3,0.3-0.9,0-1.2c-0.3-0.3-0.9-0.3-1.2,0l-6.5,6.5h-9.9l10.7-10.7c0.3-0.3,0.3-0.9,0-1.2s-0.9-0.3-1.2,0L64,60.3v-7.3v-2.7   L70.5,43.9z"/></g></svg>