<?xml version="1.0" ?><svg id="Layer_1" style="enable-background:new 0 0 100 100;" version="1.1" viewBox="0 0 100 100" xml:space="preserve" xmlns="http://www.w3.org/2000/svg" xmlns:xlink="http://www.w3.org/1999/xlink"><g><path d="M27,69.9c0.5,0,0.9-0.4,0.9-0.9c0,0,0,0,0,0c0-0.5-0.4-0.9-0.9-0.9c-5.5,0-11.6-6.5-11.6-15.1c0-6.2,3.9-11.9,9.7-14.1   c0.3-0.1,0.5-0.4,0.6-0.8c0.4-10.6,9-18.8,19.6-18.8c7.1,0,13.5,3.7,17,9.9c-4.5,0.8-8.7,3.1-11.8,6.8C50,36.4,50,37,50.4,37.3   c0.2,0.1,0.4,0.2,0.6,0.2c0.2,0,0.5-0.1,0.7-0.3c6.7-7.8,18.4-8.8,26.3-2.2c4.1,3.4,6.8,8.6,6.8,14.4c0,10.4-8.4,18.8-18.8,18.8   c-0.5,0-0.9,0.4-0.9,0.9c0,0,0,0,0,0c0,0.5,0.4,0.9,0.9,0.9c11.3,0,20.5-9.2,20.5-20.5c0-6.2-2.8-11.8-7.1-15.5c0,0,0,0,0-0.1   c-0.1-0.1-0.1-0.1-0.2-0.2c-0.4-0.3-0.8-0.6-1.2-0.9c-0.1-0.1-0.3-0.2-0.4-0.3c-0.4-0.3-0.9-0.6-1.3-0.8c-0.1-0.1-0.2-0.1-0.4-0.2   c-0.5-0.3-1-0.5-1.5-0.8c-0.1,0-0.2-0.1-0.2-0.1c-0.6-0.2-1.2-0.5-1.8-0.7c0,0,0,0-0.1,0c-2-0.6-4.1-1-6.2-1c-0.4,0-0.8,0-1.3,0.1   c-0.1,0-0.3,0-0.4,0c-0.1,0-0.2,0-0.2,0c-3.7-7-10.9-11.3-18.8-11.3c-11.3,0-20.6,8.7-21.3,19.9c-6.2,2.6-10.3,8.8-10.3,15.5   C13.6,61,19.3,69.9,27,69.9z"/><path d="M64.3,59.4c-0.1-0.3-0.5-0.5-0.8-0.5H50.6l6.7-11.3c0.2-0.3,0.2-0.6,0-0.9c-0.2-0.3-0.4-0.4-0.8-0.4H40.7   c-0.4,0-0.8,0.3-0.9,0.7l-4.2,20.2c-0.1,0.3,0,0.5,0.2,0.7c0.2,0.2,0.4,0.3,0.7,0.3h7.4l-0.2,0.8l-3.2,12.2c-0.1,0.4,0.1,0.8,0.4,1   c0.1,0.1,0.3,0.1,0.4,0.1c0.2,0,0.4-0.1,0.6-0.2l13.3-13l8.9-8.7C64.3,60.1,64.4,59.7,64.3,59.4z M45.7,66.8   c-0.2-0.2-0.4-0.3-0.7-0.3h-7.4L41.4,48H55l-6.7,11.3c-0.2,0.3-0.2,0.6,0,0.9c0.2,0.3,0.4,0.4,0.8,0.4h12.3L43,78.6l2.9-11.1   C45.9,67.3,45.9,67,45.7,66.8z"/></g></svg>