<?xml version="1.0" ?><svg id="Layer_1" style="enable-background:new 0 0 100 100;" version="1.1" viewBox="0 0 100 100" xml:space="preserve" xmlns="http://www.w3.org/2000/svg" xmlns:xlink="http://www.w3.org/1999/xlink"><g><path d="M62,20c-0.2-0.3-0.4-0.4-0.8-0.4H34c-0.4,0-0.8,0.3-0.9,0.7L26,55.1c-0.1,0.3,0,0.5,0.2,0.7c0.2,0.2,0.4,0.3,0.7,0.3h13.5   l-6.1,23.2c-0.1,0.4,0.1,0.8,0.4,1c0.1,0.1,0.3,0.1,0.4,0.1c0.2,0,0.4-0.1,0.6-0.2l38.1-37.4c0.3-0.2,0.3-0.6,0.2-0.9   c-0.1-0.3-0.5-0.5-0.8-0.5H49.9L62,20.9C62.1,20.6,62.1,20.3,62,20z M47.6,41.7c-0.2,0.3-0.2,0.6,0,0.9c0.2,0.3,0.4,0.4,0.8,0.4   h22.7L36.7,76.7l5.6-21.2c0.1-0.3,0-0.5-0.2-0.8c-0.2-0.2-0.4-0.3-0.7-0.3H27.9l6.8-33h25L47.6,41.7z"/></g></svg>