<?xml version="1.0" ?><svg id="Layer_1" style="enable-background:new 0 0 100 100;" version="1.1" viewBox="0 0 100 100" xml:space="preserve" xmlns="http://www.w3.org/2000/svg" xmlns:xlink="http://www.w3.org/1999/xlink"><g><path d="M21.8,80.8h35.5c11.3,0,20.5-9.2,20.5-20.5c0-0.3,0-0.6,0-0.9c2,0.7,4.2,1,6.5,1c3.6,0,7.2-1,10.3-2.8   c0.3-0.2,0.5-0.5,0.4-0.9c-0.1-0.4-0.3-0.6-0.7-0.7c-7.8-1.4-13.5-8.3-13.5-16.3c0-8,5.7-14.8,13.5-16.3c0.4-0.1,0.6-0.3,0.7-0.7   c0.1-0.4-0.1-0.7-0.4-0.9c-3.1-1.8-6.7-2.8-10.3-2.8c-11.4,0-20.6,9.3-20.6,20.6c0,0.3,0,0.6,0,1c-1.4-0.4-2.8-0.7-4.2-0.9   c0,0-0.1,0-0.1,0c-0.3,0-0.6-0.1-0.9-0.1c-0.1,0-0.2,0-0.2,0c-0.2,0-0.5,0-0.7,0c-0.1,0-0.1,0-0.2,0c0,0-0.1,0-0.1,0   c-0.5,0-1,0-1.5,0.1c-0.1,0-0.1,0-0.2,0c0,0-0.1,0-0.1,0c-3.7-7-10.9-11.3-18.8-11.3c-11.3,0-20.6,8.7-21.3,19.9   C9.1,51.1,5,57.3,5,64C5,73.3,12.5,80.8,21.8,80.8z M17,49.1c0.4-10.6,9-18.8,19.6-18.8c7.1,0,13.5,3.7,17,9.8   c-4.6,0.8-8.8,3.2-11.8,6.8c-0.3,0.4-0.3,0.9,0.1,1.2c0.2,0.1,0.4,0.2,0.6,0.2c0.2,0,0.5-0.1,0.7-0.3c3.3-3.8,7.8-6.1,12.8-6.5   c4.9-0.4,9.7,1.2,13.5,4.3c4.1,3.4,6.8,8.6,6.8,14.4c0,10.4-8.4,18.8-18.8,18.8H21.8c-8.3,0-15.1-6.8-15.1-15.1   c0-6.2,3.9-11.9,9.7-14.1C16.7,49.8,17,49.5,17,49.1z M65.4,39.8c0-10.4,8.5-18.9,18.9-18.9c2.5,0,5.1,0.5,7.4,1.5   C84.2,24.8,79,31.8,79,39.8s5.2,15,12.6,17.4c-2.3,1-4.9,1.5-7.4,1.5c-2.3,0-4.6-0.4-6.7-1.2c-0.7-5.1-3.2-9.5-6.9-12.7   c0,0,0,0,0-0.1c-1.6-1.4-3.3-2.4-5.2-3.3C65.4,40.9,65.4,40.4,65.4,39.8z"/></g></svg>