<?xml version="1.0" ?><svg id="Layer_1" style="enable-background:new 0 0 100 100;" version="1.1" viewBox="0 0 100 100" xml:space="preserve" xmlns="http://www.w3.org/2000/svg" xmlns:xlink="http://www.w3.org/1999/xlink"><g><path d="M55.7,73.7c4.2,0,8.2-1.1,11.8-3.2c0.3-0.2,0.5-0.5,0.4-0.9c-0.1-0.4-0.3-0.6-0.7-0.7c-9.1-1.7-15.7-9.6-15.7-18.9   s6.6-17.2,15.7-18.9c0.4-0.1,0.6-0.3,0.7-0.7c0.1-0.4-0.1-0.7-0.4-0.9c-3.6-2.1-7.7-3.2-11.8-3.2C42.6,26.3,32,36.9,32,50   S42.6,73.7,55.7,73.7z M55.7,28.1c3.1,0,6.1,0.7,8.9,1.9c-8.7,2.7-14.8,10.7-14.8,20s6.1,17.4,14.8,20c-2.8,1.2-5.8,1.9-8.9,1.9   c-12.1,0-21.9-9.8-21.9-21.9S43.6,28.1,55.7,28.1z"/></g></svg>