<?xml version="1.0" ?><svg id="Layer_1" style="enable-background:new 0 0 100 100;" version="1.1" viewBox="0 0 100 100" xml:space="preserve" xmlns="http://www.w3.org/2000/svg" xmlns:xlink="http://www.w3.org/1999/xlink"><g><path d="M31,75.9c0.3,0,0.6-0.2,0.8-0.5l1.5-2.9c0.2-0.4,0.1-1-0.4-1.2c-0.4-0.2-1-0.1-1.2,0.4l-1.5,2.9c-0.2,0.4-0.1,1,0.4,1.2   C30.7,75.8,30.9,75.9,31,75.9z"/><path d="M26.4,83.9c-0.4-0.2-1-0.1-1.2,0.4l-1.2,2.3c-0.2,0.4-0.1,1,0.4,1.2c0.1,0.1,0.3,0.1,0.4,0.1c0.3,0,0.6-0.2,0.8-0.5   l1.2-2.3C27,84.6,26.9,84.1,26.4,83.9z"/><path d="M53.2,75.4l1.5-2.9c0.2-0.4,0.1-1-0.4-1.2c-0.4-0.2-1-0.1-1.2,0.4l-1.5,2.9c-0.2,0.4-0.1,1,0.4,1.2   c0.1,0.1,0.3,0.1,0.4,0.1C52.8,75.9,53.1,75.7,53.2,75.4z"/><path d="M46.7,84.3l-1.2,2.3c-0.2,0.4-0.1,1,0.4,1.2c0.1,0.1,0.3,0.1,0.4,0.1c0.3,0,0.6-0.2,0.8-0.5l1.2-2.3c0.2-0.4,0.1-1-0.4-1.2   C47.4,83.7,46.9,83.9,46.7,84.3z"/><path d="M42.5,75.4l1.5-2.9c0.2-0.4,0.1-1-0.4-1.2c-0.4-0.2-1-0.1-1.2,0.4L41,74.6c-0.2,0.4-0.1,1,0.4,1.2c0.1,0.1,0.3,0.1,0.4,0.1   C42,75.9,42.3,75.7,42.5,75.4z"/><path d="M35.6,87.9c0.3,0,0.6-0.2,0.8-0.5l1.2-2.3c0.2-0.4,0.1-1-0.4-1.2c-0.4-0.2-1-0.1-1.2,0.4l-1.2,2.3c-0.2,0.4-0.1,1,0.4,1.2   C35.3,87.8,35.4,87.9,35.6,87.9z"/><path d="M63.9,71.7l-1.5,2.9c-0.2,0.4-0.1,1,0.4,1.2c0.1,0.1,0.3,0.1,0.4,0.1c0.3,0,0.6-0.2,0.8-0.5l1.5-2.9c0.2-0.4,0.1-1-0.4-1.2   C64.6,71.1,64.1,71.3,63.9,71.7z"/><path d="M58.6,83.9c-0.4-0.2-1-0.1-1.2,0.4l-1.2,2.3c-0.2,0.4-0.1,1,0.4,1.2c0.1,0.1,0.3,0.1,0.4,0.1c0.3,0,0.6-0.2,0.8-0.5   l1.2-2.3C59.2,84.6,59,84.1,58.6,83.9z"/><path d="M86.4,43.9c0-6.2-2.8-11.8-7.1-15.5c0,0,0,0,0-0.1c-0.1-0.1-0.1-0.1-0.2-0.2c-0.4-0.3-0.8-0.6-1.2-0.9   c-0.1-0.1-0.3-0.2-0.4-0.3c-0.4-0.3-0.9-0.6-1.3-0.8c-0.1-0.1-0.2-0.1-0.4-0.2c-0.5-0.3-1-0.5-1.5-0.8c-0.1,0-0.2-0.1-0.2-0.1   c-0.6-0.2-1.2-0.5-1.8-0.7c0,0,0,0-0.1,0c-2-0.6-4.1-1-6.2-1c-0.4,0-0.8,0-1.3,0.1c-0.1,0-0.3,0-0.4,0c-0.1,0-0.2,0-0.2,0   c-3.7-7-10.9-11.3-18.8-11.3c-11.3,0-20.6,8.7-21.3,19.9c-6.2,2.6-10.3,8.8-10.3,15.5c0,9.3,7.6,16.8,16.8,16.8h35.5   C77.2,64.4,86.4,55.2,86.4,43.9z M65.9,62.7H30.4c-8.3,0-15.1-6.8-15.1-15.1c0-6.2,3.9-11.9,9.7-14.1c0.3-0.1,0.5-0.4,0.6-0.8   c0.4-10.6,9-18.8,19.6-18.8c7.1,0,13.5,3.7,17,9.9c-4.5,0.8-8.7,3.1-11.8,6.8c-0.3,0.4-0.3,0.9,0.1,1.2c0.2,0.1,0.4,0.2,0.6,0.2   c0.2,0,0.5-0.1,0.7-0.3c6.7-7.8,18.4-8.8,26.3-2.2c4.1,3.4,6.8,8.6,6.8,14.4C84.7,54.2,76.3,62.7,65.9,62.7z"/></g></svg>