<?xml version="1.0" ?><svg id="Layer_1" style="enable-background:new 0 0 100 100;" version="1.1" viewBox="0 0 100 100" xml:space="preserve" xmlns="http://www.w3.org/2000/svg" xmlns:xlink="http://www.w3.org/1999/xlink"><g><path d="M30.4,62.2h35.5c11.3,0,20.5-9.2,20.5-20.5c0-6.2-2.8-11.8-7.1-15.5c0,0,0,0,0-0.1C79.2,26,79.1,26,79,25.9   c-0.4-0.3-0.8-0.6-1.2-0.9c-0.1-0.1-0.3-0.2-0.4-0.3c-0.4-0.3-0.9-0.6-1.3-0.8c-0.1-0.1-0.2-0.1-0.4-0.2c-0.5-0.3-1-0.5-1.5-0.8   c-0.1,0-0.2-0.1-0.2-0.1c-0.6-0.2-1.2-0.5-1.8-0.7c0,0,0,0-0.1,0c-2-0.6-4.1-1-6.2-1c-0.4,0-0.8,0-1.3,0.1c-0.1,0-0.3,0-0.4,0   c-0.1,0-0.2,0-0.2,0c-3.7-7-10.9-11.3-18.8-11.3c-11.3,0-20.6,8.7-21.3,19.9c-6.2,2.6-10.3,8.8-10.3,15.5   C13.6,54.6,21.1,62.2,30.4,62.2z M25.6,30.5c0.4-10.6,9-18.8,19.6-18.8c7.1,0,13.5,3.7,17,9.9c-4.5,0.8-8.7,3.1-11.8,6.8   c-0.3,0.4-0.3,0.9,0.1,1.2c0.2,0.1,0.4,0.2,0.6,0.2c0.2,0,0.5-0.1,0.7-0.3c6.7-7.8,18.4-8.8,26.3-2.2c4.1,3.4,6.8,8.6,6.8,14.4   c0,10.4-8.4,18.8-18.8,18.8H30.4c-8.3,0-15.1-6.8-15.1-15.1c0-6.2,3.9-11.9,9.7-14.1C25.3,31.1,25.6,30.8,25.6,30.5z"/><path d="M33.4,74.9c0.7-1.1,0.9-2.4,0.7-3.6c0,0,0,0,0,0c-0.3-1.3-1-2.4-2.1-3.1c-1.1-0.7-2.4-1-3.6-0.7c-2.6,0.5-4.3,3.1-3.7,5.7   c0.5,2.3,2.5,3.8,4.7,3.8c0.3,0,0.7,0,1-0.1C31.6,76.7,32.7,76,33.4,74.9z M30,75.3c-1.7,0.4-3.3-0.7-3.7-2.4   c-0.4-1.7,0.7-3.3,2.4-3.7c0.2,0,0.4-0.1,0.6-0.1c0.6,0,1.2,0.2,1.7,0.5c0.7,0.5,1.2,1.1,1.3,2c0,0,0,0,0,0c0.2,0.8,0,1.6-0.4,2.3   C31.5,74.6,30.8,75.1,30,75.3z"/><path d="M63.3,67.3c-1.1-0.7-2.4-1-3.6-0.7c-2.6,0.5-4.3,3.1-3.7,5.7c0.5,2.3,2.5,3.8,4.7,3.8c0.3,0,0.7,0,1-0.1   c1.3-0.3,2.4-1,3.1-2.1c0.7-1.1,0.9-2.4,0.7-3.6c0,0,0,0,0,0C65.1,69.1,64.4,68,63.3,67.3z M61.3,74.4c-1.7,0.4-3.3-0.7-3.7-2.4   c-0.4-1.7,0.7-3.3,2.4-3.7c0.2,0,0.4-0.1,0.6-0.1c0.6,0,1.2,0.2,1.7,0.5c0.7,0.5,1.2,1.1,1.3,2c0,0,0,0,0,0c0.2,0.8,0,1.6-0.4,2.3   C62.8,73.8,62.1,74.2,61.3,74.4z"/><path d="M48.5,71.7c-1.1-0.7-2.4-0.9-3.6-0.7c-2.6,0.5-4.3,3.1-3.7,5.7c0.5,2.3,2.5,3.8,4.7,3.8c0.3,0,0.7,0,1-0.1   c1.3-0.3,2.4-1,3.1-2.1c0.7-1.1,0.9-2.4,0.7-3.6c0,0,0,0,0,0C50.4,73.5,49.6,72.4,48.5,71.7z M46.5,78.7c-1.7,0.4-3.3-0.7-3.7-2.4   c-0.4-1.7,0.7-3.3,2.4-3.7c0.2,0,0.4-0.1,0.6-0.1c0.6,0,1.2,0.2,1.7,0.5c0.7,0.5,1.2,1.1,1.3,2c0,0,0,0,0,0c0.2,0.8,0,1.6-0.4,2.3   C48,78.1,47.3,78.6,46.5,78.7z"/><path d="M72.9,76.9c-1.1-0.7-2.4-0.9-3.6-0.7c-2.6,0.5-4.3,3.1-3.7,5.7c0.5,2.3,2.5,3.8,4.7,3.8c0.3,0,0.7,0,1-0.1   c1.3-0.3,2.4-1,3.1-2.1c0.7-1.1,0.9-2.4,0.7-3.6c0,0,0,0,0,0C74.7,78.7,73.9,77.6,72.9,76.9z M70.8,84c-1.7,0.3-3.3-0.7-3.7-2.4   c-0.4-1.7,0.7-3.3,2.4-3.7c0.2,0,0.4-0.1,0.6-0.1c0.6,0,1.2,0.2,1.7,0.5c0.7,0.5,1.2,1.1,1.3,2c0,0,0,0,0,0c0.2,0.8,0,1.6-0.4,2.3   C72.4,83.3,71.7,83.8,70.8,84z"/><path d="M51.6,86.3c0.5,2.3,2.5,3.8,4.7,3.8c0.3,0,0.7,0,1-0.1c1.3-0.3,2.4-1,3.1-2.1c0.7-1.1,0.9-2.4,0.7-3.6c0,0,0,0,0,0   c-0.3-1.3-1-2.4-2.1-3.1c-1.1-0.7-2.4-0.9-3.6-0.7C52.7,81.1,51,83.7,51.6,86.3z M58,82.7c0.7,0.5,1.2,1.1,1.3,2c0,0,0,0,0,0   c0.2,0.8,0,1.6-0.4,2.3c-0.5,0.7-1.1,1.2-2,1.3c-1.7,0.4-3.3-0.7-3.7-2.4c-0.4-1.7,0.7-3.3,2.4-3.7c0.2,0,0.4-0.1,0.6-0.1   C56.9,82.2,57.5,82.3,58,82.7z"/><path d="M38.2,90c1.3-0.3,2.4-1,3.1-2.1c0.7-1.1,0.9-2.4,0.7-3.6c0,0,0,0,0,0c-0.3-1.3-1-2.4-2.1-3.1c-1.1-0.7-2.4-0.9-3.6-0.7   c-2.6,0.5-4.3,3.1-3.7,5.7c0.5,2.3,2.5,3.8,4.7,3.8C37.5,90.1,37.9,90.1,38.2,90z M36.6,82.2c0.2,0,0.4-0.1,0.6-0.1   c0.6,0,1.2,0.2,1.7,0.5c0.7,0.5,1.2,1.1,1.3,2c0,0,0,0,0,0c0.2,0.8,0,1.6-0.4,2.3c-0.5,0.7-1.1,1.2-2,1.3c-1.7,0.4-3.3-0.7-3.7-2.4   C33.8,84.2,34.9,82.6,36.6,82.2z"/></g></svg>