<?xml version="1.0" ?><svg id="Layer_1" style="enable-background:new 0 0 100 100;" version="1.1" viewBox="0 0 100 100" xml:space="preserve" xmlns="http://www.w3.org/2000/svg" xmlns:xlink="http://www.w3.org/1999/xlink"><g><path d="M50,67.6c9.7,0,17.6-7.9,17.6-17.6S59.7,32.4,50,32.4S32.4,40.3,32.4,50S40.3,67.6,50,67.6z M50,34.1   c8.8,0,15.9,7.1,15.9,15.9c0,8.8-7.1,15.9-15.9,15.9c-8.8,0-15.9-7.1-15.9-15.9C34.1,41.2,41.2,34.1,50,34.1z"/><path d="M49.1,77.2v5.3c0,0.5,0.4,0.9,0.9,0.9c0.5,0,0.9-0.4,0.9-0.9v-5.3c0-0.5-0.4-0.9-0.9-0.9C49.5,76.3,49.1,76.7,49.1,77.2z"/><path d="M50,23.7c0.5,0,0.9-0.4,0.9-0.9v-5.3c0-0.5-0.4-0.9-0.9-0.9c-0.5,0-0.9,0.4-0.9,0.9v5.3C49.1,23.3,49.5,23.7,50,23.7z"/><path d="M17.5,50.9h5.3c0.5,0,0.9-0.4,0.9-0.9c0-0.5-0.4-0.9-0.9-0.9h-5.3c-0.5,0-0.9,0.4-0.9,0.9C16.7,50.5,17.1,50.9,17.5,50.9z"/><path d="M77.2,50.9h5.3c0.5,0,0.9-0.4,0.9-0.9c0-0.5-0.4-0.9-0.9-0.9h-5.3c-0.5,0-0.9,0.4-0.9,0.9C76.3,50.5,76.7,50.9,77.2,50.9z"/><path d="M72.3,73.6c0.2,0.2,0.4,0.3,0.6,0.3s0.4-0.1,0.6-0.3c0.3-0.3,0.3-0.9,0-1.2l-3.7-3.7c-0.3-0.3-0.9-0.3-1.2,0   c-0.3,0.3-0.3,0.9,0,1.2L72.3,73.6z"/><path d="M30.2,31.4c0.2,0.2,0.4,0.3,0.6,0.3s0.4-0.1,0.6-0.3c0.3-0.3,0.3-0.9,0-1.2l-3.7-3.7c-0.3-0.3-0.9-0.3-1.2,0   c-0.3,0.3-0.3,0.9,0,1.2L30.2,31.4z"/><path d="M27,73.8c0.2,0,0.4-0.1,0.6-0.3l3.7-3.7c0.3-0.3,0.3-0.9,0-1.2c-0.3-0.3-0.9-0.3-1.2,0l-3.7,3.7c-0.3,0.3-0.3,0.9,0,1.2   C26.6,73.7,26.8,73.8,27,73.8z"/><path d="M69.2,31.6c0.2,0,0.4-0.1,0.6-0.3l3.7-3.7c0.3-0.3,0.3-0.9,0-1.2c-0.3-0.3-0.9-0.3-1.2,0l-3.7,3.7c-0.3,0.3-0.3,0.9,0,1.2   C68.8,31.6,69,31.6,69.2,31.6z"/></g></svg>