<?xml version="1.0" ?><svg id="Layer_1" style="enable-background:new 0 0 100 100;" version="1.1" viewBox="0 0 100 100" xml:space="preserve" xmlns="http://www.w3.org/2000/svg" xmlns:xlink="http://www.w3.org/1999/xlink"><g><path d="M28.4,56.3c-3.6,3.1-5.8,7.8-5.8,12.7c0,9.3,7.6,16.8,16.8,16.8h35.5c11.3,0,20.5-9.2,20.5-20.5c0-6.2-2.8-11.8-7.1-15.5   c0,0,0,0,0-0.1c-0.1-0.1-0.1-0.1-0.2-0.2c-0.4-0.3-0.8-0.6-1.2-0.9c-0.1-0.1-0.3-0.2-0.4-0.3c-0.4-0.3-0.9-0.6-1.4-0.8   c-0.1-0.1-0.2-0.1-0.4-0.2c-0.5-0.3-1-0.5-1.6-0.8c-0.1,0-0.1-0.1-0.2-0.1c-0.6-0.2-1.2-0.5-1.8-0.7c0,0,0,0,0,0   c-2-0.6-4.1-1-6.2-1c-0.4,0-0.9,0-1.3,0.1c-0.1,0-0.2,0-0.3,0c-0.1,0-0.2,0-0.3,0c-3.7-7-10.9-11.3-18.8-11.3c-3,0-5.9,0.6-8.5,1.7   c-2.5-4.7-7.4-8-13.1-8c-8.2,0-14.8,6.6-14.8,14.8C17.7,48.8,22.2,54.5,28.4,56.3z M59.3,51.9c-0.3,0.4-0.3,0.9,0.1,1.2   c0.2,0.1,0.4,0.2,0.6,0.2c0.2,0,0.5-0.1,0.7-0.3c3.3-3.8,7.8-6.1,12.8-6.5c4.9-0.4,9.7,1.2,13.5,4.3c4.1,3.4,6.8,8.6,6.8,14.4   c0,10.4-8.4,18.8-18.8,18.8H39.4c-8.3,0-15.1-6.8-15.1-15.1c0-6.2,3.9-11.9,9.7-14.1c0.3-0.1,0.5-0.4,0.6-0.8   c0.4-10.6,9-18.8,19.6-18.8c7.1,0,13.5,3.7,17,9.9C66.7,46,62.4,48.2,59.3,51.9z M32.5,29c5,0,9.4,2.9,11.6,7   c-6.3,3.4-10.8,9.8-11.3,17.5c-0.9,0.4-1.8,0.9-2.7,1.4c-6.1-1.1-10.7-6.4-10.7-12.8C19.4,34.9,25.3,29,32.5,29z"/><path d="M32.5,20.3c0.5,0,0.9-0.4,0.9-0.9v-4.4c0-0.5-0.4-0.9-0.9-0.9c-0.5,0-0.9,0.4-0.9,0.9v4.4C31.6,19.9,32,20.3,32.5,20.3z"/><path d="M5.5,42.9h4.4c0.5,0,0.9-0.4,0.9-0.9c0-0.5-0.4-0.9-0.9-0.9H5.5c-0.5,0-0.9,0.4-0.9,0.9C4.6,42.6,5,42.9,5.5,42.9z"/><path d="M15.9,26.7c0.2,0.2,0.4,0.3,0.6,0.3s0.4-0.1,0.6-0.3c0.3-0.3,0.3-0.9,0-1.2L14,22.4c-0.3-0.3-0.9-0.3-1.2,0   c-0.3,0.3-0.3,0.9,0,1.2L15.9,26.7z"/><path d="M13.4,62.1c0.2,0,0.4-0.1,0.6-0.3l3.1-3.1c0.3-0.3,0.3-0.9,0-1.2c-0.3-0.3-0.9-0.3-1.2,0l-3.1,3.1c-0.3,0.3-0.3,0.9,0,1.2   C13,62,13.2,62.1,13.4,62.1z"/><path d="M48.5,26.9c0.2,0,0.4-0.1,0.6-0.3l3.1-3.1c0.3-0.3,0.3-0.9,0-1.2c-0.3-0.3-0.9-0.3-1.2,0l-3.1,3.1c-0.3,0.3-0.3,0.9,0,1.2   C48.1,26.9,48.3,26.9,48.5,26.9z"/></g></svg>