<?xml version="1.0" ?><svg id="Layer_1" style="enable-background:new 0 0 100 100;" version="1.1" viewBox="0 0 100 100" xml:space="preserve" xmlns="http://www.w3.org/2000/svg" xmlns:xlink="http://www.w3.org/1999/xlink"><g><path d="M50.9,34.7v-4.8c0-0.5-0.4-0.9-0.9-0.9s-0.9,0.4-0.9,0.9v4.8c0,0.5,0.4,0.9,0.9,0.9S50.9,35.1,50.9,34.7z"/><path d="M25.3,60.2c0.5,0,0.9-0.4,0.9-0.9c0-0.5-0.4-0.9-0.9-0.9h-4.8c-0.5,0-0.9,0.4-0.9,0.9c0,0.5,0.4,0.9,0.9,0.9H25.3z"/><path d="M74.7,60.2h4.8c0.5,0,0.9-0.4,0.9-0.9c0-0.5-0.4-0.9-0.9-0.9h-4.8c-0.5,0-0.9,0.4-0.9,0.9C73.8,59.8,74.2,60.2,74.7,60.2z"/><path d="M32.5,42.8c0.2,0,0.4-0.1,0.6-0.3c0.3-0.3,0.3-0.9,0-1.2l-3.4-3.4c-0.3-0.3-0.9-0.3-1.2,0c-0.3,0.3-0.3,0.9,0,1.2l3.4,3.4   C32.1,42.7,32.3,42.8,32.5,42.8z"/><path d="M66.8,42.5c0.2,0.2,0.4,0.3,0.6,0.3s0.4-0.1,0.6-0.3l3.4-3.4c0.3-0.3,0.3-0.9,0-1.2c-0.3-0.3-0.9-0.3-1.2,0l-3.4,3.4   C66.5,41.6,66.5,42.2,66.8,42.5z"/><path d="M66.1,59.4c0-8.9-7.2-16.1-16.1-16.1s-16.1,7.2-16.1,16.1c0,3.6,1.2,7.1,3.4,9.9H14.6c-0.5,0-0.9,0.4-0.9,0.9   s0.4,0.9,0.9,0.9h24.7h21.5h24.7c0.5,0,0.9-0.4,0.9-0.9s-0.4-0.9-0.9-0.9H62.7C64.9,66.4,66.1,63,66.1,59.4z M39.6,69.3   c-2.6-2.7-4-6.2-4-9.9C35.7,51.4,42.1,45,50,45s14.3,6.4,14.3,14.3c0,3.7-1.4,7.2-4,9.9H39.6z"/></g></svg>