<?xml version="1.0" ?><svg id="Layer_1" style="enable-background:new 0 0 100 100;" version="1.1" viewBox="0 0 100 100" xml:space="preserve" xmlns="http://www.w3.org/2000/svg" xmlns:xlink="http://www.w3.org/1999/xlink"><g><path d="M49.1,20.4v4.8c0,0.5,0.4,0.9,0.9,0.9s0.9-0.4,0.9-0.9v-4.8c0-0.5-0.4-0.9-0.9-0.9S49.1,19.9,49.1,20.4z"/><path d="M20.5,50.7h4.8c0.5,0,0.9-0.4,0.9-0.9c0-0.5-0.4-0.9-0.9-0.9h-4.8c-0.5,0-0.9,0.4-0.9,0.9C19.6,50.4,20,50.7,20.5,50.7z"/><path d="M73.8,49.9c0,0.5,0.4,0.9,0.9,0.9h4.8c0.5,0,0.9-0.4,0.9-0.9c0-0.5-0.4-0.9-0.9-0.9h-4.8C74.2,49,73.8,49.4,73.8,49.9z"/><path d="M31.9,33c0.2,0.2,0.4,0.3,0.6,0.3c0.2,0,0.4-0.1,0.6-0.3c0.3-0.3,0.3-0.9,0-1.2l-3.4-3.4c-0.3-0.3-0.9-0.3-1.2,0   c-0.3,0.3-0.3,0.9,0,1.2L31.9,33z"/><path d="M70.2,28.4l-3.4,3.4c-0.3,0.3-0.3,0.9,0,1.2c0.2,0.2,0.4,0.3,0.6,0.3s0.4-0.1,0.6-0.3l3.4-3.4c0.3-0.3,0.3-0.9,0-1.2   C71.1,28.1,70.6,28.1,70.2,28.4z"/><path d="M14.6,61.5h24.7h21.5h24.7c0.5,0,0.9-0.4,0.9-0.9s-0.4-0.9-0.9-0.9H62.7c2.2-2.8,3.4-6.3,3.4-9.9c0-8.9-7.2-16.1-16.1-16.1   c-8.9,0-16.1,7.2-16.1,16.1c0,3.6,1.2,7.1,3.4,9.9H14.6c-0.5,0-0.9,0.4-0.9,0.9S14.1,61.5,14.6,61.5z M35.7,49.9   c0-7.9,6.4-14.3,14.3-14.3S64.3,42,64.3,49.9c0,3.7-1.4,7.2-4,9.9H39.6C37.1,57.1,35.7,53.6,35.7,49.9z"/><path d="M74.8,69.3H25.2c-0.5,0-0.9,0.4-0.9,0.9s0.4,0.9,0.9,0.9h49.5c0.5,0,0.9-0.4,0.9-0.9S75.3,69.3,74.8,69.3z"/><path d="M62.4,80.5c0.5,0,0.9-0.4,0.9-0.9c0-0.5-0.4-0.9-0.9-0.9H37.6c-0.5,0-0.9,0.4-0.9,0.9c0,0.5,0.4,0.9,0.9,0.9H62.4z"/></g></svg>