<?xml version="1.0" ?><svg id="Layer_1" style="enable-background:new 0 0 100 100;" version="1.1" viewBox="0 0 100 100" xml:space="preserve" xmlns="http://www.w3.org/2000/svg" xmlns:xlink="http://www.w3.org/1999/xlink"><g><path d="M87.6,18.7H12.4c-0.5,0-0.9,0.4-0.9,0.9s0.4,0.9,0.9,0.9h75.3c0.5,0,0.9-0.4,0.9-0.9S88.1,18.7,87.6,18.7z"/><path d="M77.2,27.4H23.7c-0.5,0-0.9,0.4-0.9,0.9s0.4,0.9,0.9,0.9h53.6c0.5,0,0.9-0.4,0.9-0.9S77.7,27.4,77.2,27.4z"/><path d="M83.3,36.1H33.2c-0.5,0-0.9,0.4-0.9,0.9c0,0.5,0.4,0.9,0.9,0.9h50.1c0.5,0,0.9-0.4,0.9-0.9C84.2,36.5,83.8,36.1,83.3,36.1z   "/><path d="M83.3,45.7c0-0.5-0.4-0.9-0.9-0.9H40.2c-0.5,0-0.9,0.4-0.9,0.9c0,0.5,0.4,0.9,0.9,0.9h42.3C82.9,46.5,83.3,46.1,83.3,45.7z   "/><path d="M72.9,55.2c0.5,0,0.9-0.4,0.9-0.9c0-0.5-0.4-0.9-0.9-0.9H34.1c-0.5,0-0.9,0.4-0.9,0.9c0,0.5,0.4,0.9,0.9,0.9H72.9z"/><path d="M29.7,63c0,0.5,0.4,0.9,0.9,0.9h33.6c0.5,0,0.9-0.4,0.9-0.9c0-0.5-0.4-0.9-0.9-0.9H30.6C30.1,62.2,29.7,62.5,29.7,63z"/><path d="M32.3,72.6h14.5c0.5,0,0.9-0.4,0.9-0.9c0-0.5-0.4-0.9-0.9-0.9H32.3c-0.5,0-0.9,0.4-0.9,0.9C31.5,72.2,31.9,72.6,32.3,72.6z   "/><path d="M40.2,79.5c-0.5,0-0.9,0.4-0.9,0.9c0,0.5,0.4,0.9,0.9,0.9H52c0.5,0,0.9-0.4,0.9-0.9c0-0.5-0.4-0.9-0.9-0.9H40.2z"/></g></svg>