<?xml version="1.0" encoding="iso-8859-1"?>
<!-- Generator: Adobe Illustrator 19.0.0, SVG Export Plug-In . SVG Version: 6.00 Build 0)  -->
<svg version="1.1" id="Capa_1" xmlns="http://www.w3.org/2000/svg" xmlns:xlink="http://www.w3.org/1999/xlink" x="0px" y="0px"
	 viewBox="0 0 464 464" style="enable-background:new 0 0 464 464;" xml:space="preserve">
<g>
	<g>
		<path d="M360,308.023h-64v-40c0-4.418-3.582-8-8-8H176c-4.418,0-8,3.582-8,8v40h-64c-57.41,0.066-103.934,46.59-104,104v16
			c0,4.418,3.582,8,8,8h448c4.418,0,8-3.582,8-8v-16C463.934,354.613,417.41,308.089,360,308.023z M184,276.023h96v32h-96V276.023z
			 M208,371.439l-6.944,48.584H96v-40H80v40H16v-8c0.057-48.577,39.423-87.943,88-88h88v32c0,4.418,3.582,8,8,8
			c1.731,0,3.415-0.561,4.8-1.6l3.2-2.4V371.439z M217.224,420.023l5.712-40h18.128l5.712,40H217.224z M224,364.023v-16h16v16H224z
			 M252.504,337.407L236.8,325.623c-1.422-1.067-3.111-1.6-4.8-1.6c-1.689,0-3.378,0.533-4.8,1.6l-15.68,11.76l-0.32,0.24l-3.2,2.4
			v-16h24h24v16l-3.2-2.4L252.504,337.407z M448,420.023h-64v-40h-16v40H262.944L256,371.439v-11.416l3.2,2.4
			c3.535,2.651,8.549,1.935,11.2-1.6c1.039-1.385,1.6-3.069,1.6-4.8v-32h88c48.577,0.057,87.943,39.423,88,88V420.023z"/>
	</g>
</g>
<g>
	<g>
		<path d="M302.6,85.663c-5.677-28.38-27.86-50.563-56.24-56.24c-39.009-7.895-77.032,17.327-84.928,56.336
			c-0.95,4.695-1.43,9.474-1.432,14.264h16c-0.012-16.73,7.477-32.584,20.408-43.2c13.098-10.717,30.311-14.998,46.904-11.664
			c30.299,6.207,49.829,35.801,43.622,66.1c-4.507,22.002-21.723,39.182-43.734,43.644c-11.155,2.277-19.176,12.079-19.2,23.464
			v33.656h16v-33.656c0.006-3.768,2.654-7.014,6.344-7.776C285.172,162.439,310.24,124.596,302.6,85.663z"/>
	</g>
</g>
<g>
	<g>
		<rect x="224" y="228.023" width="16" height="16"/>
	</g>
</g>
<g>
	<g>
		<rect x="360" y="196.023" width="16" height="16"/>
	</g>
</g>
<g>
	<g>
		<rect x="376" y="212.023" width="16" height="16"/>
	</g>
</g>
<g>
	<g>
		<rect x="360" y="228.023" width="16" height="16"/>
	</g>
</g>
<g>
	<g>
		<rect x="344" y="212.023" width="16" height="16"/>
	</g>
</g>
<g>
	<g>
		<path d="M392,52.023c-13.255,0-24,10.745-24,24s10.745,24,24,24s24-10.745,24-24S405.255,52.023,392,52.023z M392,84.023
			c-4.418,0-8-3.582-8-8s3.582-8,8-8s8,3.582,8,8S396.418,84.023,392,84.023z"/>
	</g>
</g>
<g>
	<g>
		<rect x="40" y="28.023" width="16" height="16"/>
	</g>
</g>
<g>
	<g>
		<rect x="56" y="44.023" width="16" height="16"/>
	</g>
</g>
<g>
	<g>
		<rect x="40" y="60.023" width="16" height="16"/>
	</g>
</g>
<g>
	<g>
		<rect x="24" y="44.023" width="16" height="16"/>
	</g>
</g>
<g>
	<g>
		<rect x="88" y="140.023" width="16" height="16"/>
	</g>
</g>
<g>
	<g>
		<rect x="104" y="156.023" width="16" height="16"/>
	</g>
</g>
<g>
	<g>
		<rect x="88" y="172.023" width="16" height="16"/>
	</g>
</g>
<g>
	<g>
		<rect x="72" y="156.023" width="16" height="16"/>
	</g>
</g>
<g>
</g>
<g>
</g>
<g>
</g>
<g>
</g>
<g>
</g>
<g>
</g>
<g>
</g>
<g>
</g>
<g>
</g>
<g>
</g>
<g>
</g>
<g>
</g>
<g>
</g>
<g>
</g>
<g>
</g>
</svg>
