<?xml version="1.0" ?><svg id="Layer_1" style="enable-background:new 0 0 100 100;" version="1.1" viewBox="0 0 100 100" xml:space="preserve" xmlns="http://www.w3.org/2000/svg" xmlns:xlink="http://www.w3.org/1999/xlink"><g><path d="M59.8,67.6c0,5.7-4.6,10.3-10.3,10.3s-10.3-4.6-10.3-10.3c0-0.5-0.4-0.9-0.9-0.9c-0.5,0-0.9,0.4-0.9,0.9   c0,6.7,5.4,12.1,12.1,12.1s12.1-5.4,12.1-12.1s-5.4-12.1-12.1-12.1H21.4c-0.5,0-0.9,0.4-0.9,0.9c0,0.5,0.4,0.9,0.9,0.9h28.1   C55.2,57.3,59.8,61.9,59.8,67.6z"/><path d="M13.5,47.8h65c3.9,0,7.1,3.2,7.1,7.1s-3.2,7.1-7.1,7.1s-7.1-3.2-7.1-7.1c0-0.5-0.4-0.9-0.9-0.9c-0.5,0-0.9,0.4-0.9,0.9   c0,4.9,4,8.9,8.9,8.9s8.9-4,8.9-8.9s-4-8.9-8.9-8.9h-65c-0.5,0-0.9,0.4-0.9,0.9C12.7,47.4,13,47.8,13.5,47.8z"/><path d="M58.1,37.1H29.2c-0.5,0-0.9,0.4-0.9,0.9c0,0.5,0.4,0.9,0.9,0.9h28.8c5.1,0,9.2-4.1,9.2-9.2s-4.1-9.2-9.2-9.2   s-9.2,4.1-9.2,9.2c0,0.5,0.4,0.9,0.9,0.9c0.5,0,0.9-0.4,0.9-0.9c0-4.1,3.4-7.5,7.5-7.5s7.5,3.4,7.5,7.5   C65.6,33.7,62.2,37.1,58.1,37.1z"/></g></svg>