<?xml version="1.0" ?><svg id="Layer_1" style="enable-background:new 0 0 100 100;" version="1.1" viewBox="0 0 100 100" xml:space="preserve" xmlns="http://www.w3.org/2000/svg" xmlns:xlink="http://www.w3.org/1999/xlink"><g><path d="M55.6,69.9c0.5,0,0.9-0.4,0.9-0.9c0-0.5-0.4-0.9-0.9-0.9c0,0,0,0,0,0H20.2c-8.3,0-15.1-6.8-15.1-15.1   c0-6.2,3.9-11.9,9.7-14.1c0.3-0.1,0.5-0.4,0.6-0.8c0.4-10.6,9-18.8,19.6-18.8c7.1,0,13.5,3.7,17,9.9c-4.5,0.8-8.7,3.1-11.8,6.8   c-0.3,0.4-0.3,0.9,0.1,1.2c0.2,0.1,0.4,0.2,0.6,0.2c0.2,0,0.5-0.1,0.7-0.3c6.5-7.6,17.9-8.7,25.8-2.6c0.2,0.2,0.5,0.4,0.7,0.6   c0.4,0.3,0.9,0.3,1.2-0.1c0.3-0.4,0.3-0.9-0.1-1.2c-3.8-3.3-8.6-4.9-13.3-4.9c0,0-0.1,0-0.1,0c-0.4,0-0.9,0-1.3,0.1   c-0.1,0-0.2,0-0.4,0c-0.1,0-0.2,0-0.3,0C50,22,42.9,17.6,34.9,17.6c-11.3,0-20.6,8.7-21.3,19.9C7.4,40.2,3.3,46.4,3.3,53.1   c0,9.3,7.6,16.8,16.8,16.8H55.6z"/><path d="M45.1,56.7c0,0.5,0.4,0.9,0.9,0.9h9.6h21.4c6.3,0,11.5,5.2,11.5,11.5s-5.2,11.5-11.5,11.5c-6.3,0-11.5-5.2-11.5-11.5   c0-0.5-0.4-0.9-0.9-0.9c-0.5,0-0.9,0.4-0.9,0.9c0,7.3,5.9,13.2,13.2,13.2c7.3,0,13.2-5.9,13.2-13.2s-5.9-13.2-13.2-13.2H55.6H46   C45.5,55.9,45.1,56.3,45.1,56.7z"/><path d="M86.6,45.9H63.4c-0.5,0-0.9,0.4-0.9,0.9c0,0.5,0.4,0.9,0.9,0.9h23.2c5.6,0,10.1-4.5,10.1-10.1c0-5.6-4.5-10.1-10.1-10.1   s-10.1,4.5-10.1,10.1c0,0.5,0.4,0.9,0.9,0.9s0.9-0.4,0.9-0.9c0-4.6,3.8-8.4,8.4-8.4s8.4,3.8,8.4,8.4S91.2,45.9,86.6,45.9z"/></g></svg>